HIERARCHY
ROOT Hips
{
	OFFSET -0.001795 -0.223333 0.028219
	CHANNELS 6 Xposition Yposition Zposition Zrotation Yrotation Xrotation
	JOINT LeftUpLeg
	{
		OFFSET 0.069520 -0.091406 -0.006815
		CHANNELS 3 Zrotation Yrotation Xrotation
		JOINT LeftLeg
		{
			OFFSET 0.034277 -0.375199 -0.004496
			CHANNELS 3 Zrotation Yrotation Xrotation
			JOINT LeftFoot
			{
				OFFSET -0.013596 -0.397961 -0.043693
				CHANNELS 3 Zrotation Yrotation Xrotation
				JOINT LeftToe
				{
					OFFSET 0.026358 -0.055791 0.119288
					CHANNELS 3 Zrotation Yrotation Xrotation
					End Site
					{
						OFFSET 0.000000 0.000000 0.000000
					}
				}
			}
		}
	}
	JOINT RightUpLeg
	{
		OFFSET -0.067670 -0.090522 -0.004320
		CHANNELS 3 Zrotation Yrotation Xrotation
		JOINT RightLeg
		{
			OFFSET -0.038290 -0.382569 -0.008850
			CHANNELS 3 Zrotation Yrotation Xrotation
			JOINT RightFoot
			{
				OFFSET 0.015774 -0.398415 -0.042312
				CHANNELS 3 Zrotation Yrotation Xrotation
				JOINT RightToe
				{
					OFFSET -0.025372 -0.048144 0.123348
					CHANNELS 3 Zrotation Yrotation Xrotation
					End Site
					{
						OFFSET 0.000000 0.000000 0.000000
					}
				}
			}
		}
	}
	JOINT Spine
	{
		OFFSET -0.002533 0.108963 -0.026696
		CHANNELS 3 Zrotation Yrotation Xrotation
		JOINT Spine1
		{
			OFFSET 0.005487 0.135180 0.001092
			CHANNELS 3 Zrotation Yrotation Xrotation
			JOINT Spine2
			{
				OFFSET 0.001457 0.052922 0.025425
				CHANNELS 3 Zrotation Yrotation Xrotation
				JOINT Neck
				{
					OFFSET -0.002778 0.213870 -0.042857
					CHANNELS 3 Zrotation Yrotation Xrotation
					JOINT Head
					{
						OFFSET 0.005152 0.064970 0.051349
						CHANNELS 3 Zrotation Yrotation Xrotation
						End Site
						{
							OFFSET 0.000000 0.000000 0.000000
						}
					}
				}
				JOINT LeftShoulder
				{
					OFFSET 0.078845 0.121749 -0.034090
					CHANNELS 3 Zrotation Yrotation Xrotation
					JOINT LeftArm
					{
						OFFSET 0.090977 0.030469 -0.008868
						CHANNELS 3 Zrotation Yrotation Xrotation
						JOINT LeftForeArm
						{
							OFFSET 0.259612 -0.012772 -0.027456
							CHANNELS 3 Zrotation Yrotation Xrotation
							JOINT LeftHand
							{
								OFFSET 0.249234 0.008986 -0.001171
								CHANNELS 3 Zrotation Yrotation Xrotation
								End Site
								{
									OFFSET 0.000000 0.000000 0.000000
								}
							}
						}
					}
				}
				JOINT RightShoulder
				{
					OFFSET -0.081759 0.118833 -0.038615
					CHANNELS 3 Zrotation Yrotation Xrotation
					JOINT RightArm
					{
						OFFSET -0.096012 0.032551 -0.009143
						CHANNELS 3 Zrotation Yrotation Xrotation
						JOINT RightForeArm
						{
							OFFSET -0.253742 -0.013329 -0.021401
							CHANNELS 3 Zrotation Yrotation Xrotation
							JOINT RightHand
							{
								OFFSET -0.255298 0.007772 -0.005559
								CHANNELS 3 Zrotation Yrotation Xrotation
								End Site
								{
									OFFSET 0.000000 0.000000 0.000000
								}
							}
						}
					}
				}
			}
		}
	}
}
MOTION
Frames: 5
Frame Time: 0.050000
-0.034652 0.153597 0.020564 2.722449 -1.398364 -85.320391 13.849889 3.575521 -44.526367 -7.972022 4.059029 143.123976 6.952128 14.028138 -37.439659 0.000000 0.000000 0.000000 -14.761728 -2.845197 -31.036633 19.441677 -23.129503 125.363862 -3.418804 -32.340498 -67.011334 0.000000 0.000000 0.000000 10.501327 6.363646 -11.919565 -6.577424 10.851295 50.301870 6.605043 -4.757994 -32.554428 6.254962 -8.897402 36.285697 0.000000 0.000000 0.000000 -14.960534 -19.119222 8.375263 -24.847017 -17.407481 2.168622 -159.810341 -82.138040 165.720072 0.000000 0.000000 0.000000 13.053326 2.684875 0.657152 18.640287 18.714698 2.155472 66.371139 73.973344 61.100226 0.000000 0.000000 0.000000
-0.033449 0.159211 0.027392 3.012301 -1.396531 -83.435975 13.956968 3.634495 -45.241170 -7.805839 4.533385 143.522862 7.205515 15.901675 -37.744331 0.000000 0.000000 0.000000 -14.857839 -2.711838 -32.535068 18.757284 -22.589372 126.503924 -4.772422 -27.356181 -64.624041 0.000000 0.000000 0.000000 11.697111 6.597135 -10.465883 -6.741529 13.930145 59.793909 9.558349 -5.329704 -42.306081 6.399061 -8.983876 38.388014 0.000000 0.000000 0.000000 -18.068324 -18.556674 8.014036 -29.902079 -15.616272 3.215115 -43.882615 -79.290541 42.640001 0.000000 0.000000 0.000000 13.856530 2.122986 0.725969 22.497839 18.698371 3.613153 49.393169 64.458590 37.745914 0.000000 0.000000 0.000000
-0.031614 0.164203 0.034915 3.218473 -1.381948 -80.798767 14.061596 3.636963 -47.626238 -7.336808 4.389360 144.460282 7.273612 15.076157 -37.164612 0.000000 0.000000 0.000000 -15.235822 -2.628396 -35.657936 18.046149 -22.291859 127.784867 -5.536256 -23.834035 -63.430070 0.000000 0.000000 0.000000 13.159408 6.697887 -8.453857 -6.572154 18.259013 69.177234 13.903326 -5.920624 -52.460437 8.061491 -9.450995 37.337839 0.000000 0.000000 0.000000 -22.267764 -17.442868 7.534023 -34.050979 -15.613567 4.494689 -28.203286 -68.614677 23.080336 0.000000 0.000000 0.000000 15.158952 2.131846 1.109299 24.282561 18.664217 4.806206 44.291475 56.795082 27.625200 0.000000 0.000000 0.000000
-0.029719 0.168368 0.042683 3.218383 -1.757836 -79.251731 14.347823 3.878442 -48.936280 -6.681432 2.979660 146.327744 7.278622 15.174110 -36.160308 0.000000 0.000000 0.000000 -15.840711 -2.711442 -37.581825 18.328752 -23.301929 128.337732 -5.782824 -22.242191 -62.028076 0.000000 0.000000 0.000000 14.794311 6.473305 -4.317752 -6.544951 22.118044 72.662969 17.917068 -6.710493 -57.124534 10.484401 -9.629857 36.471970 0.000000 0.000000 0.000000 -26.869454 -18.513014 9.333070 -34.464356 -17.105645 5.215098 -20.666684 -60.138682 14.628410 0.000000 0.000000 0.000000 16.764577 2.530984 1.051839 24.742096 18.488906 5.365673 40.058867 48.765063 20.073561 0.000000 0.000000 0.000000
-0.027855 0.173669 0.050378 3.362273 -1.987251 -76.520117 15.475123 4.638003 -51.409720 -5.933976 0.074640 148.240100 6.875601 11.833540 -33.774630 0.000000 0.000000 0.000000 -16.719938 -2.837093 -41.312830 19.246173 -26.011396 128.093608 -5.266860 -24.808420 -60.611350 0.000000 0.000000 0.000000 16.382427 6.101228 -0.766921 -5.084760 25.830682 79.807246 21.776010 -7.357023 -65.046418 13.181689 -8.789655 33.640080 0.000000 0.000000 0.000000 -31.217538 -19.631110 11.445820 -33.688703 -20.403481 6.318465 -16.876003 -55.777693 10.847981 0.000000 0.000000 0.000000 16.754106 2.199460 1.226207 25.818350 19.792597 6.557509 39.665375 44.354215 16.607522 0.000000 0.000000 0.000000
